<?xml version="1.0" standalone="no"?>
<!DOCTYPE svg PUBLIC "-//W3C//DTD SVG 20010904//EN"
 "http://www.w3.org/TR/2001/REC-SVG-20010904/DTD/svg10.dtd">
<svg version="1.0" xmlns="http://www.w3.org/2000/svg"
 width="1767.000000pt" height="2048.000000pt" viewBox="0 0 1767.000000 2048.000000"
 preserveAspectRatio="xMidYMid meet">

<g transform="translate(0.000000,2048.000000) scale(0.100000,-0.100000)"
fill="#000000" stroke="none">
<path d="M14505 20189 c-190 -26 -422 -120 -566 -229 -470 -355 -622 -985
-363 -1503 61 -122 114 -197 208 -296 239 -250 533 -376 876 -374 207 0 369
39 544 127 337 173 578 499 642 871 25 139 15 388 -20 520 -54 200 -167 395
-316 545 -164 165 -372 276 -607 325 -95 20 -303 27 -398 14z"/>
<path d="M1555 18294 c-128 -13 -264 -58 -379 -125 -98 -58 -248 -211 -303
-309 -154 -275 -154 -607 0 -879 52 -93 177 -226 267 -286 445 -296 1041 -133
1275 348 213 439 30 958 -411 1168 -127 61 -317 95 -449 83z"/>
<path d="M11729 12581 c-107 -27 -208 -51 -222 -55 l-27 -6 0 -320 0 -320
-205 0 -205 0 0 -175 0 -175 200 0 200 0 0 -817 c0 -758 2 -825 19 -908 33
-162 114 -330 196 -409 52 -49 133 -99 213 -132 89 -36 188 -47 347 -40 138 6
169 10 293 43 l64 16 -6 61 c-3 34 -8 114 -12 179 -5 98 -9 117 -21 113 -42
-16 -169 -28 -267 -24 -96 3 -118 8 -162 30 -85 45 -138 119 -171 240 -15 56
-17 150 -20 856 l-4 792 346 0 345 0 0 175 0 175 -345 0 -345 0 0 375 c0 206
-3 375 -7 374 -5 0 -96 -22 -204 -48z"/>
<path d="M17171 11939 c-188 -24 -361 -114 -486 -251 -68 -75 -135 -186 -160
-263 -10 -32 -23 -55 -31 -55 -12 0 -14 42 -14 255 l0 255 -211 0 -212 0 6
-62 c4 -35 10 -217 13 -405 6 -258 4 -343 -4 -343 -9 0 -12 -222 -12 -895 l0
-895 235 0 235 0 0 735 c0 608 3 753 15 845 26 185 71 295 165 404 135 157
308 234 532 239 l108 2 0 223 0 222 -57 -1 c-32 -1 -87 -5 -122 -10z"/>
<path d="M6565 11929 c-130 -19 -321 -94 -435 -172 -71 -49 -199 -176 -251
-250 -26 -37 -49 -64 -52 -60 -3 4 -8 96 -12 203 -3 107 -9 203 -11 213 -5 15
-24 17 -216 17 l-210 0 7 -42 c4 -24 9 -852 11 -1840 l5 -1798 235 0 234 0 0
713 0 712 27 -35 c52 -69 181 -187 254 -232 93 -58 203 -102 310 -124 114 -23
390 -15 499 14 238 65 395 155 551 320 90 93 141 166 203 288 186 368 216 909
74 1313 -146 416 -464 696 -858 756 -103 16 -269 18 -365 4z m247 -388 c209
-54 378 -199 483 -414 97 -200 136 -466 105 -717 -54 -438 -265 -720 -605
-805 -90 -23 -265 -24 -357 -2 -282 68 -500 295 -554 575 -21 110 -20 625 2
730 89 436 527 735 926 633z"/>
<path d="M14165 11924 c-139 -19 -191 -29 -260 -51 -252 -79 -456 -234 -613
-465 -87 -128 -176 -352 -213 -536 -27 -141 -44 -460 -29 -582 62 -541 465
-972 994 -1065 105 -18 436 -21 584 -4 53 6 150 22 215 35 117 25 341 94 358
111 8 8 -61 336 -72 347 -2 2 -56 -13 -119 -35 -173 -57 -299 -80 -500 -88
-265 -12 -390 8 -545 89 -273 141 -455 431 -455 726 l0 74 921 0 922 0 -6 203
c-6 212 -20 322 -62 468 -116 408 -381 673 -750 750 -86 18 -307 32 -370 23z
m306 -340 c274 -98 449 -349 449 -641 l0 -93 -705 0 -705 0 6 48 c21 186 91
343 205 466 83 89 138 131 234 179 176 88 348 102 516 41z"/>
<path d="M917 10583 c-3 -948 -7 -1343 -16 -1408 -31 -230 -92 -389 -179 -465
-106 -94 -257 -160 -414 -182 -46 -6 -84 -12 -86 -13 -2 -2 30 -238 43 -312 6
-32 7 -33 58 -33 151 0 351 51 507 130 150 76 232 139 301 233 75 101 180 312
214 432 52 182 51 160 47 1598 l-4 1337 -233 0 -234 0 -4 -1317z"/>
<path d="M4027 11893 c-4 -3 -7 -387 -7 -852 0 -937 1 -911 -65 -1046 -69
-139 -175 -242 -320 -312 -184 -87 -429 -83 -590 12 -107 62 -203 209 -244
370 -38 151 -41 228 -41 1032 l0 783 -241 0 -240 0 4 -872 c5 -931 5 -935 56
-1129 90 -340 306 -566 610 -638 394 -94 809 50 1042 363 35 46 65 83 66 82 2
-2 32 -378 33 -413 0 -2 95 -3 211 -3 l211 0 -8 48 c-4 26 -7 617 -5 1315 l3
1267 -234 0 c-129 0 -238 -3 -241 -7z"/>
<path d="M8215 11873 c3 -10 227 -565 497 -1233 440 -1087 492 -1221 492
-1271 1 -49 -6 -71 -56 -170 -157 -317 -404 -553 -718 -686 -41 -18 -75 -36
-74 -40 0 -4 25 -92 55 -195 33 -114 59 -188 66 -188 32 0 207 64 287 105 129
66 235 145 361 270 167 167 288 349 445 670 171 350 284 626 750 1840 188 490
344 893 347 898 2 4 -109 6 -248 5 l-252 -3 -258 -755 c-233 -682 -296 -871
-400 -1210 l-32 -105 -19 65 c-79 273 -243 726 -708 1963 l-21 57 -261 0
c-244 0 -260 -1 -253 -17z"/>
</g>
</svg>
